<?xml version="1.0" standalone="no"?>
<!DOCTYPE svg PUBLIC "-//W3C//DTD SVG 20010904//EN"
 "http://www.w3.org/TR/2001/REC-SVG-20010904/DTD/svg10.dtd">
<svg version="1.0" xmlns="http://www.w3.org/2000/svg"
 width="128.000000pt" height="128.000000pt" viewBox="0 0 128.000000 128.000000"
 preserveAspectRatio="xMidYMid meet">

<g transform="translate(0.000000,128.000000) scale(0.100000,-0.100000)"
fill="#000000" stroke="none">
<path d="M416 1264 c-18 -18 -20 -26 -6 -40 6 -6 -15 -22 -58 -44 -140 -71
-276 -242 -316 -396 -18 -71 -21 -219 -5 -296 36 -174 192 -364 353 -432 54
-22 56 -21 56 28 0 39 -3 45 -22 48 -13 2 -23 10 -23 18 0 11 12 15 45 15 l45
0 3 -72 c3 -66 5 -73 25 -77 12 -3 34 -7 50 -11 27 -5 27 -5 27 45 0 56 20
104 49 120 33 17 78 11 107 -13 22 -19 28 -34 32 -80 2 -31 8 -57 13 -57 17 0
120 42 166 68 69 38 173 141 216 213 60 102 87 201 87 321 0 117 -17 194 -65
287 -35 68 -96 148 -140 183 l-25 19 0 -69 c0 -79 -20 -116 -69 -127 -34 -7
-85 15 -101 44 -5 11 -10 58 -10 104 0 75 3 87 24 110 l25 27 -67 21 c-79 25
-236 36 -302 20 -29 -6 -46 -7 -48 0 -5 14 -32 39 -42 39 -5 0 -16 -7 -24 -16z
m335 -90 c32 -35 41 -160 14 -211 -32 -58 -103 -65 -150 -13 -17 19 -20 36
-20 112 0 86 1 91 28 114 39 33 95 33 128 -2z m-484 -338 c27 -23 28 -27 28
-121 0 -94 -1 -98 -28 -121 -30 -26 -75 -31 -109 -13 -43 23 -63 143 -37 218
21 59 97 79 146 37z m464 14 c32 -18 49 -64 49 -135 0 -98 -31 -145 -95 -145
-63 0 -95 47 -95 140 0 101 30 148 98 149 13 1 32 -4 43 -9z m-246 -135 c0
-123 -1 -130 -20 -130 -19 0 -20 8 -23 113 -2 103 -4 112 -22 112 -10 0 -22 5
-25 10 -12 20 7 31 48 28 l42 -3 0 -130z m480 0 c0 -123 -1 -130 -20 -130 -19
0 -20 8 -23 113 -2 104 -4 112 -22 112 -14 0 -20 7 -20 21 0 18 5 20 43 17
l42 -3 0 -130z m210 0 c0 -123 -1 -130 -20 -130 -19 0 -20 8 -23 113 -2 104
-4 112 -22 112 -14 0 -20 7 -20 21 0 18 5 20 43 17 l42 -3 0 -130z m-670 -221
c22 -24 25 -36 25 -111 0 -95 -8 -116 -51 -139 -39 -20 -82 -11 -109 23 -17
21 -20 41 -20 115 0 81 2 91 25 113 35 36 97 35 130 -1z m-255 -119 c0 -128
-1 -135 -20 -135 -19 0 -20 7 -20 115 l0 115 -25 0 c-14 0 -25 6 -25 13 0 21
11 27 52 27 l38 0 0 -135z m480 0 c0 -128 -1 -135 -20 -135 -19 0 -20 7 -20
115 l0 115 -25 0 c-14 0 -25 6 -25 13 0 21 11 27 52 27 l38 0 0 -135z"/>
<path d="M650 1131 c-5 -11 -10 -45 -10 -75 0 -43 5 -61 21 -77 18 -18 23 -19
42 -6 18 12 23 26 25 75 2 34 -2 71 -8 82 -14 26 -56 26 -70 1z"/>
<path d="M181 801 c-16 -10 -26 -87 -17 -135 5 -28 13 -37 33 -42 38 -10 53
17 53 92 0 79 -26 112 -69 85z"/>
<path d="M656 794 c-11 -11 -16 -35 -16 -79 0 -64 14 -95 45 -95 31 0 45 31
45 95 0 64 -14 95 -45 95 -7 0 -21 -7 -29 -16z"/>
<path d="M412 458 c-7 -7 -12 -41 -12 -85 0 -62 3 -74 20 -83 14 -8 26 -8 40
0 17 9 20 21 20 83 0 74 -9 97 -40 97 -9 0 -21 -5 -28 -12z"/>
<path d="M912 1138 c-18 -18 -16 -143 4 -162 19 -19 25 -20 48 -3 14 10 16 26
14 92 -3 77 -4 80 -28 83 -14 2 -31 -3 -38 -10z"/>
<path d="M656 114 c-10 -10 -16 -33 -16 -65 0 -48 1 -49 29 -49 51 0 61 9 61
52 0 70 -36 101 -74 62z"/>
</g>
</svg>
